<svg xmlns="http://www.w3.org/2000/svg" viewBox="0 0 1200 450" width="100%">
  <title>react-tanstack — TanStack Query + Router template</title>
  <defs>
    <linearGradient id="bg" x1="0%" y1="0%" x2="100%" y2="100%">
      <stop offset="0%" style="stop-color:#EF4444;stop-opacity:0.08"/>
      <stop offset="100%" style="stop-color:#EF4444;stop-opacity:0.03"/>
    </linearGradient>
    <pattern id="dots" x="0" y="0" width="24" height="24" patternUnits="userSpaceOnUse">
      <circle cx="2" cy="2" r="1" fill="#EF4444" opacity="0.12"/>
    </pattern>
  </defs>
  <rect width="1200" height="450" fill="#FFFFFF"/>
  <rect width="1200" height="450" fill="url(#bg)"/>
  <rect width="1200" height="450" fill="url(#dots)"/>
  <rect x="0.5" y="0.5" width="1199" height="449" rx="12" ry="12" fill="none" stroke="#E2E8F0" stroke-width="1"/>
  <g transform="translate(80, 100)">
    <text x="0" y="0" font-family="ui-monospace, 'SF Mono', 'Cascadia Code', monospace" font-size="18" fill="#64748B" letter-spacing="1">trapar-waves</text>
    <text x="0" y="60" font-family="system-ui, -apple-system, sans-serif" font-size="64" font-weight="bold" fill="#EF4444">react-tanstack</text>
    <text x="0" y="110" font-family="system-ui, -apple-system, sans-serif" font-size="22" fill="#475569">TanStack Query + Router template</text>
    <text x="0" y="142" font-family="system-ui, -apple-system, sans-serif" font-size="22" fill="#475569">with React + TypeScript + Tailwind</text>
    <g transform="translate(0, 170)">
      <rect x="0" y="0" width="90" height="36" rx="18" fill="#EF4444" opacity="0.12"/>
      <text x="45" y="23" text-anchor="middle" font-family="system-ui, sans-serif" font-size="14" fill="#EF4444">React</text>
      <rect x="100" y="0" width="80" height="36" rx="18" fill="#EF4444" opacity="0.12"/>
      <text x="140" y="23" text-anchor="middle" font-family="system-ui, sans-serif" font-size="14" fill="#EF4444">Query</text>
      <rect x="190" y="0" width="80" height="36" rx="18" fill="#EF4444" opacity="0.12"/>
      <text x="230" y="23" text-anchor="middle" font-family="system-ui, sans-serif" font-size="14" fill="#EF4444">Router</text>
    </g>
  </g>
  <g transform="translate(640, 60)">
    <g transform="translate(0, 0)">
      <rect width="240" height="150" rx="10" fill="#FFFFFF" stroke="#E2E8F0" stroke-width="1"/>
      <rect x="1" y="1" width="238" height="4" rx="2" fill="#EF4444"/>
      <text x="24" y="52" font-family="system-ui, sans-serif" font-size="36">⚡</text>
      <text x="68" y="52" font-family="system-ui, sans-serif" font-size="20" font-weight="bold" fill="#0F172A">TanStack Query</text>
      <text x="24" y="88" font-family="system-ui, sans-serif" font-size="14" fill="#64748B">Server state management</text>
      <text x="24" y="112" font-family="system-ui, sans-serif" font-size="14" fill="#64748B">Caching + sync</text>
    </g>
    <g transform="translate(260, 0)">
      <rect width="240" height="150" rx="10" fill="#FFFFFF" stroke="#E2E8F0" stroke-width="1"/>
      <rect x="1" y="1" width="238" height="4" rx="2" fill="#EF4444"/>
      <text x="24" y="52" font-family="system-ui, sans-serif" font-size="36">🔄</text>
      <text x="68" y="52" font-family="system-ui, sans-serif" font-size="20" font-weight="bold" fill="#0F172A">Router</text>
      <text x="24" y="88" font-family="system-ui, sans-serif" font-size="14" fill="#64748B">Type-safe routing</text>
      <text x="24" y="112" font-family="system-ui, sans-serif" font-size="14" fill="#64748B">Nested routes</text>
    </g>
    <g transform="translate(0, 170)">
      <rect width="240" height="150" rx="10" fill="#FFFFFF" stroke="#E2E8F0" stroke-width="1"/>
      <rect x="1" y="1" width="238" height="4" rx="2" fill="#EF4444"/>
      <text x="24" y="52" font-family="system-ui, sans-serif" font-size="36">🔗</text>
      <text x="68" y="52" font-family="system-ui, sans-serif" font-size="20" font-weight="bold" fill="#0F172A">TypeScript</text>
      <text x="24" y="88" font-family="system-ui, sans-serif" font-size="14" fill="#64748B">Full type safety</text>
      <text x="24" y="112" font-family="system-ui, sans-serif" font-size="14" fill="#64748B">Modern ES syntax</text>
    </g>
    <g transform="translate(260, 170)">
      <rect width="240" height="150" rx="10" fill="#FFFFFF" stroke="#E2E8F0" stroke-width="1"/>
      <rect x="1" y="1" width="238" height="4" rx="2" fill="#EF4444"/>
      <text x="24" y="52" font-family="system-ui, sans-serif" font-size="36">📦</text>
      <text x="68" y="52" font-family="system-ui, sans-serif" font-size="20" font-weight="bold" fill="#0F172A">Fast</text>
      <text x="24" y="88" font-family="system-ui, sans-serif" font-size="14" fill="#64748B">Rsbuild optimized</text>
      <text x="24" y="112" font-family="system-ui, sans-serif" font-size="14" fill="#64748B">Code splitting</text>
    </g>
  </g>
</svg>
